<svg xmlns="http://www.w3.org/2000/svg" shape-rendering="geometricPrecision" text-rendering="geometricPrecision" image-rendering="optimizeQuality" fill-rule="evenodd" clip-rule="evenodd" viewBox="0 0 512 305.675"><path fill="gray" fill-rule="nonzero" d="M48.179 0h415.643c13.256 0 25.303 5.419 34.031 14.147C506.582 22.876 512 34.924 512 48.178v209.318c0 13.254-5.419 25.301-14.148 34.03-8.729 8.729-20.776 14.149-34.03 14.149H48.179c-13.254 0-25.303-5.419-34.032-14.148C5.419 282.799 0 270.753 0 257.496V48.178c0-13.257 5.418-25.304 14.146-34.032C22.874 5.418 34.922 0 48.179 0zm415.643 16.605H48.179c-8.674 0-16.566 3.555-22.292 9.281-5.726 5.726-9.282 13.619-9.282 22.292v209.318c0 8.673 3.557 16.564 9.283 22.29 5.727 5.728 13.62 9.284 22.291 9.284h415.643c8.67 0 16.561-3.557 22.289-9.284 5.727-5.728 9.284-13.619 9.284-22.29V48.178c0-8.671-3.555-16.563-9.283-22.291-5.726-5.727-13.618-9.282-22.29-9.282z"/><path fill="#FFCA05" d="M143.731 117.893a37.841 37.841 0 0111.67-1.852h.065c17.912 0 32.864 12.459 36.287 29.029l25.379-5.073c-5.822-28.161-31.212-49.342-61.662-49.342a63.953 63.953 0 00-19.954 3.168l8.215 24.07z"/><path fill="#00A4DF" d="M114.261 199.478l17.373-19.204c-7.755-6.719-12.649-16.522-12.649-27.44 0-10.918 4.884-20.718 12.636-27.427l-17.37-19.206c-13.172 11.409-21.484 28.073-21.484 46.633 0 18.565 8.312 35.232 21.494 46.644z"/><path fill="#EE4123" d="M191.756 160.611c-3.436 16.566-18.37 29.016-36.265 29.016-.019-.002-.051-.002-.074-.002-3.966 0-7.911-.63-11.674-1.865l-8.227 24.097c6.273 2.056 12.987 3.163 19.972 3.163 30.414 0 55.8-21.163 61.644-49.305l-25.376-5.104z"/><path d="M288.981 173.265l-.018.018-.719-.485c-2.074 3.37-5.294 6.106-9.374 7.879-7.752 3.383-14.933 2.514-20.091-2.03l-.471.724c-.009-.009-.009-.013-.019-.013l-8.797 13.217a37.922 37.922 0 006.995 3.845c9.719 4.059 19.659 3.869 29.453-.41 7.09-3.083 12.644-7.787 16.448-13.746l-13.403-9.001-.004.002zm-27.462-32.617c-8.184 3.53-12.405 11.246-11.537 20.29l34.676-14.992c-5.965-7.041-13.721-9.371-23.139-5.299v.001zm-23.02 40.27a45.569 45.569 0 01-2.63-5.087c-4.002-9.331-4.191-18.984-.815-28.252 3.715-10.165 10.808-17.947 19.981-21.909 11.528-4.985 24.272-4.002 35.321 2.585 7.019 4.041 11.995 10.288 15.772 19.115.485 1.129.903 2.338 1.319 3.366L238.5 180.913l-.001.005zm93.043-74.717v73.495l11.379 4.632-6.463 15.15-12.556-5.25c-2.819-1.231-4.739-3.107-6.189-5.224-1.389-2.161-2.427-5.118-2.427-9.111l-.001-73.692h16.257zm29.47 54.772c-.002.012-.002.026-.002.04a20.84 20.84 0 007.059 15.628l-11.656 13.086a38.388 38.388 0 01-12.87-28.674v-.099c-.002-.01-.002-.023-.002-.033a38.358 38.358 0 0112.912-28.701l11.669 13.072a20.815 20.815 0 00-7.11 15.667v.014zm20.734 20.859c10.023.008 18.389-7.125 20.338-16.614l17.131 3.512c-3.573 17.509-19.005 30.678-37.487 30.662a38.171 38.171 0 01-12.132-1.993l5.576-16.646a20.919 20.919 0 006.573 1.078l.001.001zm.054-59.24c18.493.014 33.909 13.236 37.433 30.767l-17.134 3.485c-1.938-9.689-10.435-16.676-20.317-16.699a20.93 20.93 0 00-6.577 1.069l-5.524-16.663a38.073 38.073 0 0112.047-1.959H381.8z"/></svg>